<!-- Generated by IcoMoon.io -->
<svg version="1.1" xmlns="http://www.w3.org/2000/svg" width="32" height="32" viewBox="0 0 32 32">
<path fill="#e2e4f3" d="M16 0c8.837 0 16 7.163 16 16s-7.163 16-16 16c-8.837 0-16-7.163-16-16s7.163-16 16-16z"></path>
<path fill="#3e9fff" d="M16 28c-6.627 0-12-5.373-12-12s5.373-12 12-12c6.627 0 12 5.373 12 12s-5.373 12-12 12zM22.563 13.024c0.566-0.679 0.474-1.688-0.205-2.253s-1.688-0.474-2.253 0.205l-4.423 5.308c-0.555 0.666-0.867 1.034-1.116 1.261l-0.009 0.009-0.010-0.008c-0.268-0.203-0.612-0.542-1.225-1.155l-1.522-1.522c-0.625-0.625-1.638-0.625-2.263 0s-0.625 1.638 0 2.263l1.588 1.588c0.522 0.523 1.025 1.025 1.492 1.379 0.524 0.396 1.21 0.769 2.089 0.729s1.528-0.473 2.014-0.915c0.434-0.394 0.889-0.941 1.362-1.508l0.059-0.071 4.424-5.308z"></path>
</svg>
