<!-- Generated by IcoMoon.io -->
<svg version="1.1" xmlns="http://www.w3.org/2000/svg" width="32" height="32" viewBox="0 0 32 32">
<path fill="#e2e4f3" d="M16 0c8.837 0 16 7.163 16 16s-7.163 16-16 16c-8.837 0-16-7.163-16-16s7.163-16 16-16z"></path>
<path fill="#dd524c" d="M28 16c0-6.627-5.373-12-12-12s-12 5.373-12 12c0 6.627 5.373 12 12 12s12-5.373 12-12zM9.535 22.465c-0.625-0.625-0.625-1.638 0-2.263l4.202-4.202-4.202-4.202c-0.625-0.625-0.625-1.638 0-2.263s1.638-0.625 2.263 0l4.202 4.202 4.202-4.202c0.625-0.625 1.638-0.625 2.263 0s0.625 1.638 0 2.263l-4.202 4.202 4.202 4.202c0.625 0.625 0.625 1.638 0 2.263s-1.638 0.625-2.263 0l-4.202-4.202-4.202 4.202c-0.625 0.625-1.638 0.625-2.263 0z"></path>
</svg>
